# xmcd CD database file
#
# Track frame offsets:
#	150
#	18008
#	37255
#	57107
#	80975
#	97552
#	114557
#	131494
#	147863
#	175520
#	192904
#	224326
#	247093
#	263923
#	284574
#	301372
#	318743
#	333501
#
# Disc length: 4734 seconds
#
# Revision: 0
# Processed by: cddbd v1.4PL0 Copyright (c) Steve Scherf et al.
# Submitted via: Feurio! 1.65 - http://www.feurio.com
#
DISCID=0a127c12
DTITLE=Various Artist - Feel  Much Better
DYEAR=1900
DGENRE=
TTITLE0=Spooks - Things I've Seen
TTITLE1=Robbie Williams - Rock DJ
TTITLE2=Phoenix - If I Ever Feel Better
TTITLE3=Moloko - The Time Is Now(ALBUM)
TTITLE4=Van Morrison - Real Real Gone
TTITLE5=Willy de Ville - Demasiado Corazon (Livå version)
TTITLE6=OMC - How Bizarre (Album Mix)
TTITLE7=Fresh N' Funky - Rock Pop Soul Funk Forever
TTITLE8=Stars on 54 - If You Could Rea
TTITLE9=DJ Tonka - The Night - Radio Version
TTITLE10=Moloko - Sing it back (mousse t. s  fee
TTITLE11=Modjo - Laäy (Hear Me Tonight)
TTITLE12=Spiller - Groovejet
TTITLE13=Sugababes - Overload
TTITLE14=Madonna - Music
TTITLE15=Wu Tang Clan - Gravel Pit
TTITLE16=Mary Mary - Shackles
TTITLE17=All Saints - Black Coffee
EXTD=
EXTT0=
EXTT1=
EXTT2=
EXTT3=
EXTT4=
EXTT5=
EXTT6=
EXTT7=
EXTT8=
EXTT9=
EXTT10=
EXTT11=
EXTT12=
EXTT13=
EXTT14=
EXTT15=
EXTT16=
EXTT17=
PLAYORDER=
